# Blender v2.79 (sub 0) OBJ File: ''
# www.blender.org
mtllib Bookcase_1.mtl
o Cube.001_Cube.000
v 1.083840 0.556421 -0.098893
v -0.889974 0.556421 -0.098892
v -0.889974 0.556421 0.317537
v 1.083840 0.556421 0.317536
v 1.083840 0.556421 -0.577660
v -0.889974 0.556421 -0.577660
v -0.889974 0.556421 -0.134446
v 1.083840 0.556421 -0.134447
v 1.083840 0.556421 0.317536
v -0.889974 0.556421 0.317537
v -0.889974 1.815929 0.317537
v 1.083840 1.815929 0.317537
v -0.889974 1.815929 -0.577660
v -0.889974 0.556421 -0.577660
v 1.083840 0.556421 -0.577660
v 1.083840 1.815929 -0.577660
v 1.120712 1.815929 0.366695
v -0.926845 1.815929 0.366696
v -0.926845 0.541824 0.366695
v 1.120712 0.541824 0.366695
v 1.083840 1.815929 -0.134446
v 1.083840 0.556421 -0.134447
v 1.120712 1.815929 -0.626818
v -0.926846 1.815929 -0.626818
v 1.083840 1.815929 -0.098892
v 1.120712 1.815929 -0.108488
v 1.120712 1.815929 -0.134446
v 1.083840 0.556421 -0.098893
v -0.889974 1.815929 -0.134446
v -0.889974 0.556421 -0.134446
v -0.889974 0.556421 -0.098892
v -0.889974 1.815929 -0.098892
v -0.926846 1.815929 -0.108488
v -0.926846 1.815929 -0.134446
v -0.926845 2.408268 0.366696
v -0.926845 2.351064 0.366696
v 1.120712 2.351064 0.366695
v 1.120712 2.408268 0.366695
v -0.926846 2.351064 -0.626817
v 1.120712 2.351064 -0.626818
v 1.120712 2.408268 -0.626818
v -0.926846 2.408268 -0.626817
v 1.120712 3.513767 -0.626817
v -0.926846 3.513767 -0.626817
v -0.926846 3.513767 0.280908
v 1.120712 3.513767 0.280908
v -0.926846 3.474955 0.280908
v 1.120712 3.474955 0.280908
v 1.120712 4.350572 0.280908
v -0.926846 4.350572 0.280908
v -0.926846 4.350572 -0.626816
v 1.120712 4.350572 -0.626817
v 1.120712 4.389385 -0.626817
v -0.926846 4.389385 -0.626816
v -0.926846 4.389385 0.280908
v 1.120712 4.389385 0.280908
v -0.926846 3.474955 -0.626817
v 1.120712 3.474955 -0.626817
v 1.205425 0.494028 -0.434440
v 1.205425 0.494028 0.366695
v 1.205425 0.307820 0.366695
v 1.205425 0.307820 -0.434440
v 1.205425 0.307820 0.418549
v 1.205425 0.001914 0.418548
v 1.205425 0.054316 0.366695
v 1.205425 5.329175 -0.434438
v 1.205425 2.351064 -0.434440
v 1.205425 2.351064 -0.474496
v 1.205425 5.329175 -0.474495
v 1.205425 5.540057 -0.701483
v 1.205425 5.329175 -0.701483
v 1.120712 5.540057 -0.701483
v 1.205425 5.540057 -0.434438
v 1.205425 5.540057 -0.474495
v 1.120712 0.541824 0.366695
v 1.120712 2.351064 0.366695
v 1.120712 2.351064 -0.626818
v 1.120712 0.541824 -0.626818
v 1.205425 2.351064 0.366695
v 1.120712 5.329175 0.366697
v 1.120712 2.408268 0.366695
v 1.205425 5.329175 0.366697
v 1.205425 5.540057 0.366697
v -1.011559 5.329175 -0.701483
v -0.926846 5.540057 -0.701483
v 1.205425 0.494028 -0.701485
v -1.011559 0.494028 -0.701485
v -1.011559 2.351064 -0.701484
v 1.205425 2.351064 -0.701485
v -0.926845 5.329175 0.366697
v -0.926846 5.329175 -0.626816
v 1.120712 5.329175 -0.626817
v 1.120712 2.408268 -0.626818
v 1.140353 0.494028 0.366695
v 1.205425 0.307821 -0.701485
v 1.140353 0.307821 -0.701485
v 1.205425 0.468503 0.418549
v 1.140353 0.468503 0.418549
v 1.140353 0.307820 0.418549
v 1.140353 0.167975 0.654472
v 1.140353 0.001914 0.654472
v 1.140353 0.001914 0.686252
v 1.140353 0.080651 0.686252
v 1.205426 0.001914 0.654472
v 1.205426 0.001914 0.686252
v 1.140353 0.001914 -0.474497
v 1.140353 0.001914 -0.701486
v 1.205425 0.001914 -0.701486
v 1.205425 0.001914 -0.474497
v 1.140353 0.054316 0.366695
v 1.140353 0.001914 0.418548
v 1.140353 0.307821 -0.474497
v 1.140353 0.307820 0.366695
v 1.205425 0.054316 -0.434440
v 1.205426 0.080651 0.686252
v 1.205426 0.167975 0.654472
v 1.205425 0.307821 -0.474497
v 1.205426 0.001914 0.518270
v 1.140353 0.001914 0.518270
v 1.140353 0.307820 -0.434440
v 1.140353 0.054316 -0.434440
v -0.946487 0.494028 0.366695
v -0.946487 0.468503 0.418549
v 1.205425 0.494028 -0.474497
v 1.120712 5.582417 0.348892
v -0.926845 5.582417 0.348892
v -0.926845 5.540057 0.366697
v 1.120712 5.540057 0.366697
v 1.205426 0.001914 0.566483
v 1.205426 0.270070 0.566483
v 1.205426 0.224912 0.614697
v 1.205426 0.001914 0.614697
v 1.140353 0.291238 0.518270
v 1.205426 0.291238 0.518270
v -0.946487 0.307820 0.366695
v -0.946487 0.307820 -0.434440
v 1.140353 0.270070 0.566483
v 1.140353 0.224912 0.614697
v 1.140353 0.001914 0.566483
v 1.140353 0.001914 0.614697
v 1.191398 5.582417 -0.470197
v 1.191398 5.582417 -0.431193
v 1.191398 5.582417 0.348892
v -0.946487 0.307820 0.418549
v -0.946487 0.307821 -0.474496
v -0.946487 0.307821 -0.701485
v -0.926846 2.408268 -0.626817
v 1.120712 5.582417 -0.431193
v -0.926846 5.582417 -0.431193
v 1.120712 5.582417 -0.470197
v 1.191398 5.582417 -0.691221
v 1.120712 5.582417 -0.691221
v -0.926846 5.582417 -0.470197
v -0.926846 5.582417 -0.691221
v -0.926845 0.541824 0.366695
v -0.926846 2.351064 -0.626817
v -0.926846 0.541824 -0.626818
v -1.011559 0.494028 -0.434440
v -1.011559 0.307820 -0.434440
v -1.011559 0.307820 0.366695
v -1.011559 0.494028 0.366695
v -1.011559 5.329175 -0.434438
v -1.011559 5.329175 -0.474495
v -1.011559 2.351064 -0.474496
v -1.011559 2.351064 -0.434439
v -1.011559 5.540057 -0.701483
v -1.011559 5.540057 -0.434438
v -1.011559 5.540057 -0.474494
v -0.926845 2.351064 0.366696
v -1.011559 2.351064 0.366696
v -1.011559 5.329175 0.366697
v -0.926845 2.408268 0.366696
v -1.011559 5.540057 0.366697
v -1.011559 0.307821 -0.701485
v -1.011559 0.468503 0.418549
v -1.011559 0.307820 0.418549
v -1.011559 0.494028 -0.474496
v -1.011559 0.307821 -0.474496
v -0.997531 5.582417 -0.431193
v -0.997531 5.582417 -0.470197
v -0.997531 5.582417 0.348892
v -0.997531 5.582417 -0.691221
v -1.011559 0.307820 0.366695
v -1.011559 0.054316 0.366695
v -1.011559 0.001914 0.418549
v -1.011559 0.307820 0.418549
v -0.946487 0.167975 0.654473
v -0.946487 0.080651 0.686252
v -0.946487 0.001914 0.686252
v -0.946487 0.001914 0.654473
v -1.011559 0.001914 0.686252
v -1.011559 0.001914 0.654473
v -0.946487 0.001914 -0.474497
v -1.011559 0.001914 -0.474497
v -1.011559 0.001914 -0.701485
v -0.946487 0.001914 -0.701485
v -0.946487 0.054316 0.366695
v -0.946487 0.001914 0.418549
v -0.946487 0.307821 -0.474496
v -0.946487 0.307821 -0.701484
v -0.946487 0.307820 0.418549
v -0.946487 0.307820 0.366695
v -1.011559 0.307820 -0.434440
v -1.011559 0.054316 -0.434440
v -1.011559 0.307821 -0.701484
v -1.011559 0.080651 0.686252
v -1.011559 0.167975 0.654473
v -1.011559 0.307821 -0.474496
v -0.946487 0.001914 0.518270
v -1.011559 0.001914 0.518270
v -0.946487 0.054316 -0.434440
v -0.946487 0.307820 -0.434440
v -1.011559 0.001914 0.566483
v -1.011559 0.001914 0.614697
v -1.011559 0.224912 0.614697
v -1.011559 0.270070 0.566483
v -1.011559 0.291238 0.518270
v -0.946487 0.291238 0.518270
v -0.946487 0.224912 0.614697
v -0.946487 0.270070 0.566483
v -0.946487 0.001914 0.566483
v -0.946487 0.001914 0.614697
vt 0.647620 0.808686
vt 0.647620 0.619165
vt 0.695379 0.619165
vt 0.695380 0.808686
vt 0.598916 0.808686
vt 0.598916 0.619165
vt 0.643789 0.619165
vt 0.643789 0.808686
vt 0.808666 0.608544
vt 0.808667 0.798065
vt 0.701610 0.798065
vt 0.701610 0.608544
vt 0.808666 0.608544
vt 0.701610 0.608544
vt 0.701610 0.419024
vt 0.808666 0.419024
vt 0.701610 0.419024
vt 0.701610 0.615625
vt 0.593313 0.615625
vt 0.593313 0.419024
vt 0.915723 0.419024
vt 0.953395 0.419024
vt 0.953395 0.539959
vt 0.915723 0.539959
vt 0.700677 0.615625
vt 0.700677 0.812226
vt 0.695380 0.808686
vt 0.695379 0.619165
vt 0.643789 0.619165
vt 0.598916 0.619165
vt 0.593618 0.615625
vt 0.644823 0.615625
vt 0.598916 0.808686
vt 0.593618 0.812226
vt 0.647620 0.619165
vt 0.647620 0.615625
vt 0.915723 0.660893
vt 0.951119 0.660893
vt 0.951119 0.781828
vt 0.915723 0.781828
vt 0.808667 0.798065
vt 0.808666 0.608544
vt 0.915723 0.608544
vt 0.915723 0.798065
vt 0.808666 0.608544
vt 0.808666 0.419024
vt 0.915723 0.419024
vt 0.915723 0.608544
vt 0.643789 0.808686
vt 0.647620 0.808686
vt 0.915723 0.660893
vt 0.915723 0.539959
vt 0.953395 0.539959
vt 0.953395 0.660893
vt 0.644823 0.812226
vt 0.647620 0.812226
vt 0.951119 0.781828
vt 0.951119 0.660893
vt 0.986515 0.660893
vt 0.986515 0.781828
vt 0.262436 0.510407
vt 0.262436 0.506032
vt 0.419042 0.506032
vt 0.419042 0.510408
vt 0.262436 0.430044
vt 0.419042 0.430044
vt 0.419042 0.586395
vt 0.262436 0.586395
vt 0.419042 0.728308
vt 0.262437 0.728308
vt 0.262437 0.658881
vt 0.419042 0.658881
vt 0.262437 0.655913
vt 0.419042 0.655912
vt 0.575738 0.499471
vt 0.419133 0.499471
vt 0.419133 0.430044
vt 0.575738 0.430044
vt 0.575738 0.571866
vt 0.419133 0.571866
vt 0.419133 0.502439
vt 0.575738 0.502440
vt 0.262436 0.586486
vt 0.419042 0.586486
vt 0.112270 0.129251
vt 0.112270 0.196334
vt 0.093365 0.196334
vt 0.093365 0.129251
vt 0.493214 0.630732
vt 0.493214 0.626700
vt 0.519557 0.626700
vt 0.515045 0.630732
vt 0.289789 0.010888
vt 0.289789 0.258431
vt 0.285907 0.258431
vt 0.285907 0.010888
vt 0.212796 0.793530
vt 0.197117 0.793530
vt 0.212796 0.785547
vt 0.238186 0.760766
vt 0.253775 0.760766
vt 0.253775 0.764540
vt 0.238186 0.764540
vt 0.364768 0.416084
vt 0.364768 0.258431
vt 0.448159 0.258431
vt 0.448159 0.416084
vt 0.356451 0.258431
vt 0.356451 0.416084
vt 0.289789 0.416084
vt 0.364768 0.010888
vt 0.364768 0.253492
vt 0.356451 0.010888
vt 0.238186 0.685266
vt 0.253775 0.685266
vt 0.197117 0.584600
vt 0.212796 0.592584
vt 0.988623 0.416084
vt 0.801460 0.416084
vt 0.801460 0.258431
vt 0.988623 0.258431
vt 0.197117 0.777563
vt 0.122726 0.777563
vt 0.122726 0.584600
vt 0.197117 0.584600
vt 0.448159 0.010888
vt 0.448159 0.253492
vt 0.114413 0.195227
vt 0.114413 0.200676
vt 0.112270 0.193582
vt 0.146389 0.200676
vt 0.127485 0.200676
vt 0.127485 0.195227
vt 0.120280 0.200676
vt 0.120280 0.195227
vt 0.127485 0.195227
vt 0.127485 0.200676
vt 0.109678 0.200676
vt 0.093365 0.200676
vt 0.478914 0.711310
vt 0.493214 0.711310
vt 0.493214 0.713781
vt 0.486434 0.713781
vt 0.520848 0.651859
vt 0.525653 0.651859
vt 0.525653 0.653978
vt 0.520848 0.653978
vt 0.489006 0.639977
vt 0.489006 0.628012
vt 0.492805 0.628012
vt 0.492805 0.639977
vt 0.519912 0.682582
vt 0.519912 0.686920
vt 0.516043 0.686920
vt 0.516043 0.682582
vt 0.466871 0.623535
vt 0.466871 0.605887
vt 0.493214 0.605887
vt 0.493214 0.623535
vt 0.466871 0.692967
vt 0.466871 0.688936
vt 0.488702 0.688936
vt 0.493214 0.692967
vt 0.493214 0.692967
vt 0.515045 0.693018
vt 0.516043 0.662187
vt 0.520848 0.662187
vt 0.520848 0.682582
vt 0.516043 0.682582
vt 0.516043 0.659340
vt 0.520848 0.659340
vt 0.520848 0.662187
vt 0.516043 0.662187
vt 0.519557 0.608358
vt 0.505257 0.608358
vt 0.512777 0.605887
vt 0.519557 0.605887
vt 0.516043 0.654401
vt 0.520848 0.654401
vt 0.493214 0.696133
vt 0.519557 0.696133
vt 0.520848 0.636130
vt 0.525653 0.636130
vt 0.525653 0.642779
vt 0.520848 0.642779
vt 0.466871 0.626649
vt 0.488702 0.626649
vt 0.489006 0.684314
vt 0.489006 0.642088
vt 0.492805 0.642088
vt 0.492805 0.684314
vt 0.114413 0.020486
vt 0.120280 0.020486
vt 0.285907 0.416084
vt 0.234888 0.592584
vt 0.234888 0.785547
vt 0.231515 0.785547
vt 0.231515 0.592584
vt 0.238186 0.785932
vt 0.253775 0.785932
vt 0.112270 0.125897
vt 0.093365 0.125897
vt 0.112270 0.106890
vt 0.093365 0.106890
vt 0.266675 0.258431
vt 0.266675 0.416084
vt 0.493214 0.713781
vt 0.519557 0.713781
vt 0.519557 0.615199
vt 0.496465 0.615199
vt 0.500354 0.611450
vt 0.519557 0.611450
vt 0.516043 0.636130
vt 0.520848 0.636130
vt 0.520848 0.642315
vt 0.516043 0.642315
vt 0.151654 0.200676
vt 0.151654 0.025935
vt 0.232988 0.025935
vt 0.232988 0.200676
vt 0.493214 0.700720
vt 0.468299 0.700720
vt 0.516043 0.645781
vt 0.520848 0.645781
vt 0.520848 0.650115
vt 0.516043 0.650115
vt 0.520848 0.645993
vt 0.525653 0.645993
vt 0.525653 0.649207
vt 0.520848 0.649207
vt 0.470122 0.704469
vt 0.493214 0.704469
vt 0.493214 0.708218
vt 0.474011 0.708218
vt 0.234888 0.764135
vt 0.234888 0.760460
vt 0.494642 0.618947
vt 0.519557 0.618947
vt 0.231515 0.584600
vt 0.234888 0.585922
vt 0.127485 0.020486
vt 0.237054 0.200676
vt 0.237054 0.025935
vt 0.260099 0.025935
vt 0.260099 0.200676
vt 0.620023 0.010888
vt 0.620023 0.253492
vt 0.146389 0.200676
vt 0.146389 0.025935
vt 0.266675 0.010888
vt 0.234888 0.686944
vt 0.127485 0.020486
vt 0.146389 0.015037
vt 0.044845 0.784225
vt 0.044845 0.591262
vt 0.103256 0.591262
vt 0.103256 0.784225
vt 0.103256 0.584600
vt 0.106176 0.584600
vt 0.106176 0.591262
vt 0.044845 0.584600
vt 0.122726 0.584600
vt 0.122726 0.591262
vt 0.216036 0.785547
vt 0.216036 0.592584
vt 0.106176 0.784225
vt 0.122726 0.784225
vt 0.216036 0.785547
vt 0.216036 0.792208
vt 0.234888 0.784965
vt 0.216036 0.584600
vt 0.801460 0.010888
vt 0.988623 0.010888
vt 0.112270 0.022131
vt 0.620023 0.258431
vt 0.620023 0.416084
vt 0.074461 0.129251
vt 0.093365 0.129251
vt 0.093365 0.196334
vt 0.074461 0.196334
vt 0.778360 0.010888
vt 0.782243 0.010888
vt 0.782243 0.258431
vt 0.778360 0.258431
vt 0.212796 0.584600
vt 0.250477 0.660100
vt 0.250477 0.663875
vt 0.234888 0.663875
vt 0.234888 0.660100
vt 0.703729 0.416084
vt 0.703729 0.258431
vt 0.778360 0.416084
vt 0.710817 0.416084
vt 0.710818 0.258431
vt 0.703729 0.010888
vt 0.710818 0.010888
vt 0.703729 0.253492
vt 0.234888 0.584600
vt 0.250477 0.584600
vt 0.114413 0.015037
vt 0.127485 0.015037
vt 0.120280 0.015037
vt 0.127485 0.015037
vt 0.093365 0.200676
vt 0.077052 0.200676
vt 0.782243 0.416084
vt 0.250477 0.685266
vt 0.234888 0.685266
vt 0.074461 0.125897
vt 0.093365 0.125897
vt 0.074461 0.106890
vt 0.093365 0.106890
vt 0.253775 0.659794
vt 0.253775 0.663470
vt 0.234888 0.792208
vt 0.231515 0.793530
vt 0.253775 0.586278
vt 0.103256 0.790886
vt 0.106176 0.790886
vt 0.044845 0.790886
vt 0.122726 0.790886
vt 0.216036 0.585922
vt 0.216036 0.592584
vt 0.253775 0.684299
vt 0.216036 0.793530
vt 0.493214 0.630732
vt 0.515045 0.630732
vt 0.519557 0.626700
vt 0.493214 0.626700
vt 0.478914 0.711310
vt 0.486434 0.713781
vt 0.493214 0.713781
vt 0.493214 0.711310
vt 0.520848 0.651859
vt 0.520848 0.653978
vt 0.525653 0.653978
vt 0.525653 0.651859
vt 0.489006 0.639977
vt 0.492805 0.639977
vt 0.492805 0.628012
vt 0.489006 0.628012
vt 0.519912 0.682582
vt 0.516043 0.682582
vt 0.516043 0.686920
vt 0.519912 0.686920
vt 0.466871 0.623535
vt 0.493214 0.623535
vt 0.493214 0.605887
vt 0.466871 0.605887
vt 0.466871 0.692967
vt 0.493214 0.692967
vt 0.488702 0.688936
vt 0.466871 0.688936
vt 0.493214 0.692967
vt 0.515045 0.693018
vt 0.516043 0.662187
vt 0.516043 0.682582
vt 0.520848 0.682582
vt 0.520848 0.662187
vt 0.516043 0.659340
vt 0.516043 0.662187
vt 0.520848 0.662187
vt 0.520848 0.659340
vt 0.519557 0.608358
vt 0.519557 0.605887
vt 0.512777 0.605887
vt 0.505257 0.608358
vt 0.516043 0.654401
vt 0.520848 0.654401
vt 0.493214 0.696133
vt 0.519557 0.696133
vt 0.520848 0.636130
vt 0.520848 0.642779
vt 0.525653 0.642779
vt 0.525653 0.636130
vt 0.488702 0.626649
vt 0.466871 0.626649
vt 0.489006 0.684314
vt 0.492805 0.684314
vt 0.492805 0.642088
vt 0.489006 0.642088
vt 0.493214 0.713781
vt 0.519557 0.713781
vt 0.519557 0.615199
vt 0.519557 0.611450
vt 0.500354 0.611450
vt 0.496465 0.615199
vt 0.516043 0.636130
vt 0.516043 0.642315
vt 0.520848 0.642315
vt 0.520848 0.636130
vt 0.468299 0.700720
vt 0.493214 0.700720
vt 0.516043 0.645781
vt 0.516043 0.650115
vt 0.520848 0.650115
vt 0.520848 0.645781
vt 0.520848 0.645993
vt 0.520848 0.649207
vt 0.525653 0.649207
vt 0.525653 0.645993
vt 0.470122 0.704469
vt 0.474011 0.708218
vt 0.493214 0.708218
vt 0.493214 0.704469
vt 0.519557 0.618947
vt 0.494642 0.618947
vn 0.0000 1.0000 0.0000
vn -0.0000 0.0000 -1.0000
vn 0.0000 -0.0000 1.0000
vn -1.0000 -0.0000 0.0000
vn 1.0000 0.0000 -0.0000
vn -0.0000 -1.0000 -0.0000
vn 0.0000 0.8972 0.4416
vn 0.0000 -0.7034 -0.7108
vn 0.0000 0.1736 0.9848
vn 0.0000 0.4612 0.8873
vn 0.0000 0.3875 0.9219
vn 0.0000 -0.6073 0.7945
vn 0.0000 0.9865 0.1640
vn 0.0000 0.8347 0.5507
vn 0.0000 0.6548 0.7558
vn 0.9493 0.3144 0.0000
vn 0.0000 0.9156 0.4020
vn 0.0000 0.2354 -0.9719
vn -0.9493 0.3144 0.0000
vn 0.0000 0.9585 0.2852
usemtl Bookcase_1_1.002
s 1
f 1/1/1 2/2/1 3/3/1 4/4/1
f 5/5/1 6/6/1 7/7/1 8/8/1
f 9/9/2 10/10/2 11/11/2 12/12/2
f 13/13/3 14/14/3 15/15/3 16/16/3
f 17/17/3 18/18/3 19/19/3 20/20/3
f 21/21/4 16/22/4 15/23/4 22/24/4
f 23/25/1 24/26/1 13/27/1 16/28/1
f 25/29/1 12/30/1 17/31/1 26/32/1
f 11/33/1 18/34/1 17/31/1 12/30/1
f 16/28/1 21/35/1 27/36/1 23/25/1
f 12/37/4 25/38/4 28/39/4 9/40/4
f 29/41/2 21/42/2 22/43/2 30/44/2
f 21/35/1 25/29/1 26/32/1 27/36/1
f 31/45/3 28/46/3 25/47/3 32/48/3
f 32/49/1 25/29/1 21/35/1 29/50/1
f 29/51/5 30/52/5 14/53/5 13/54/5
f 32/49/1 33/55/1 18/34/1 11/33/1
f 13/27/1 24/26/1 34/56/1 29/50/1
f 11/57/5 10/58/5 31/59/5 32/60/5
f 29/50/1 34/56/1 33/55/1 32/49/1
f 35/61/3 36/62/3 37/63/3 38/64/3
f 36/62/6 39/65/6 40/66/6 37/63/6
f 41/67/1 42/68/1 35/61/1 38/64/1
f 43/69/1 44/70/1 45/71/1 46/72/1
f 46/72/3 45/71/3 47/73/3 48/74/3
f 49/75/6 50/76/6 51/77/6 52/78/6
f 53/79/1 54/80/1 55/81/1 56/82/1
f 56/82/3 55/81/3 50/76/3 49/75/3
f 48/74/6 47/73/6 57/83/6 58/84/6
f 59/85/5 60/86/5 61/87/5 62/88/5
f 61/89/5 63/90/5 64/91/5 65/92/5
f 66/93/5 67/94/5 68/95/5 69/96/5
f 70/97/2 71/98/2 72/99/2
f 73/100/5 66/101/5 69/102/5 74/103/5
f 75/104/4 76/105/4 77/106/4 78/107/4
f 67/94/5 79/108/5 60/109/5 59/110/5
f 80/111/3 81/112/3 79/108/3 82/113/3
f 73/100/5 83/114/5 82/115/5 66/101/5
f 84/116/2 85/117/2 72/99/2 71/98/2
f 86/118/2 87/119/2 88/120/2 89/121/2
f 90/122/6 91/123/6 92/124/6 80/125/6
f 81/112/4 80/111/4 92/126/4 93/127/4
f 94/128/3 60/129/3 75/130/3
f 60/109/3 79/108/3 76/105/3 75/104/3
f 86/131/2 95/132/2 96/133/2
f 97/134/3 98/135/3 99/136/3 63/137/3
f 61/87/5 60/86/5 97/138/5 63/139/5
f 100/140/4 101/141/4 102/142/4 103/143/4
f 60/129/7 94/128/7 98/135/7 97/134/7
f 101/144/6 104/145/6 105/146/6 102/147/6
f 106/148/6 107/149/6 108/150/6 109/151/6
f 110/152/8 65/153/8 64/154/8 111/155/8
f 112/156/4 96/157/4 107/158/4 106/159/4
f 99/160/4 113/161/4 110/162/4 111/163/4
f 62/164/5 61/89/5 65/92/5 114/165/5
f 96/166/2 95/167/2 108/168/2 107/169/2
f 115/170/9 103/171/9 102/172/3 105/173/3
f 104/174/5 116/175/5 115/176/5 105/177/5
f 116/178/10 100/179/10 103/171/9 115/170/9
f 117/180/5 62/164/5 114/165/5 109/181/5
f 111/182/6 64/183/6 118/184/6 119/185/6
f 113/161/4 120/186/4 121/187/4 110/162/4
f 110/188/6 121/189/6 114/190/6 65/191/6
f 122/192/7 123/193/7 98/135/7 94/128/7
f 68/95/5 67/94/5 59/110/5 124/194/5
f 125/195/11 126/196/11 127/197/11 128/198/11
f 70/199/5 74/103/5 69/102/5 71/200/5
f 124/201/5 59/85/5 62/88/5 117/202/5
f 86/203/5 124/201/5 117/202/5 95/204/5
f 66/93/5 82/113/5 79/108/5 67/94/5
f 89/205/5 68/95/5 124/194/5 86/206/5
f 95/207/5 117/180/5 109/181/5 108/208/5
f 120/186/4 112/156/4 106/159/4 121/187/4
f 129/209/5 130/210/5 131/211/5 132/212/5
f 121/189/12 106/148/12 109/151/12 114/190/12
f 63/213/13 99/214/13 133/215/13 134/216/13
f 113/217/6 135/218/6 136/219/6 120/220/6
f 99/160/4 111/163/4 119/221/4 133/222/4
f 130/223/14 137/224/14 138/225/15 131/226/15
f 139/227/6 129/228/6 132/229/6 140/230/6
f 137/231/4 139/232/4 140/233/4 138/234/4
f 73/100/16 74/103/16 141/235/16 142/236/16
f 64/91/5 63/90/5 134/237/5 118/238/5
f 128/198/11 83/239/11 143/240/11 125/195/11
f 123/193/3 144/241/3 99/136/3 98/135/3
f 112/242/6 145/243/6 146/244/6 96/245/6
f 91/246/3 147/247/3 93/127/3 92/126/3
f 99/248/6 144/249/6 135/218/6 113/217/6
f 131/226/15 138/225/15 100/179/10 116/178/10
f 132/212/5 131/211/5 116/175/5 104/174/5
f 140/230/6 132/229/6 104/145/6 101/144/6
f 138/234/4 140/233/4 101/141/4 100/140/4
f 133/222/4 119/221/4 139/232/4 137/231/4
f 119/185/6 118/184/6 129/228/6 139/227/6
f 134/216/17 133/215/17 137/224/14 130/223/14
f 118/238/5 134/237/5 130/210/5 129/209/5
f 71/250/5 69/96/5 68/95/5 89/205/5
f 83/114/16 73/100/16 142/236/16 143/251/16
f 96/133/2 146/252/2 87/253/2 86/131/2
f 126/254/1 125/255/1 148/256/1 149/257/1
f 142/258/1 141/259/1 150/260/1 148/256/1
f 143/261/1 142/258/1 148/256/1 125/255/1
f 141/259/1 151/262/1 152/263/1 150/260/1
f 127/197/3 90/264/3 80/265/3 128/198/3
f 153/266/1 150/260/1 152/263/1 154/267/1
f 70/97/18 72/99/18 152/268/18 151/269/18
f 120/220/6 136/219/6 145/243/6 112/242/6
f 149/257/1 148/256/1 150/260/1 153/266/1
f 74/103/16 70/199/16 151/270/16 141/235/16
f 83/239/3 128/198/3 80/265/3 82/271/3
f 88/120/2 84/272/2 71/273/2 89/121/2
f 79/108/3 81/112/3 76/105/3
f 155/274/3 122/192/3 94/128/3 75/130/3
f 156/275/3 157/276/3 78/107/3 77/106/3
f 158/277/4 159/278/4 160/279/4 161/280/4
f 162/281/4 163/282/4 164/283/4 165/284/4
f 166/285/2 85/117/2 84/116/2
f 167/286/4 168/287/4 163/288/4 162/289/4
f 155/290/5 157/276/5 156/275/5 169/291/5
f 165/284/4 158/292/4 161/293/4 170/294/4
f 90/295/3 171/296/3 170/294/3 172/297/3
f 167/286/4 162/289/4 171/298/4 173/299/4
f 172/297/5 147/247/5 91/246/5 90/295/5
f 122/192/3 155/274/3 161/300/3
f 161/293/3 155/290/3 169/291/3 170/294/3
f 87/253/2 146/252/2 174/301/2
f 175/302/3 176/303/3 144/241/3 123/193/3
f 160/279/4 176/304/4 175/305/4 161/280/4
f 161/300/7 175/302/7 123/193/7 122/192/7
f 164/283/4 177/306/4 158/292/4 165/284/4
f 166/307/4 84/308/4 163/288/4 168/287/4
f 177/309/4 178/310/4 159/278/4 158/277/4
f 87/311/4 174/312/4 178/310/4 177/309/4
f 162/281/4 165/284/4 170/294/4 171/296/4
f 88/120/4 87/119/4 177/306/4 164/283/4
f 167/286/19 179/313/19 180/314/19 168/287/19
f 127/197/11 126/196/11 181/315/11 173/316/11
f 84/272/4 88/120/4 164/283/4 163/282/4
f 173/299/19 181/317/19 179/313/19 167/286/19
f 179/318/1 149/257/1 153/266/1 180/319/1
f 181/320/1 126/254/1 149/257/1 179/318/1
f 180/319/1 153/266/1 154/267/1 182/321/1
f 166/285/18 182/322/18 154/323/18 85/117/18
f 168/287/19 180/314/19 182/324/19 166/307/19
f 173/316/3 171/325/3 90/264/3 127/197/3
f 170/294/3 169/291/3 172/297/3
f 85/117/18 154/323/18 152/268/18 72/99/18
f 183/326/4 184/327/4 185/328/4 186/329/4
f 187/330/5 188/331/5 189/332/5 190/333/5
f 190/334/6 189/335/6 191/336/6 192/337/6
f 193/338/6 194/339/6 195/340/6 196/341/6
f 197/342/8 198/343/8 185/344/8 184/345/8
f 199/346/5 193/347/5 196/348/5 200/349/5
f 201/350/5 198/351/5 197/352/5 202/353/5
f 203/354/4 204/355/4 184/327/4 183/326/4
f 200/356/2 196/357/2 195/358/2 205/359/2
f 206/360/9 191/361/3 189/362/3 188/363/9
f 192/364/4 191/365/4 206/366/4 207/367/4
f 207/368/10 206/360/9 188/363/9 187/369/10
f 208/370/4 194/371/4 204/355/4 203/354/4
f 198/372/6 209/373/6 210/374/6 185/375/6
f 202/353/5 197/352/5 211/376/5 212/377/5
f 197/378/6 184/379/6 204/380/6 211/381/6
f 205/382/4 195/383/4 194/371/4 208/370/4
f 212/377/5 211/376/5 193/347/5 199/346/5
f 213/384/4 214/385/4 215/386/4 216/387/4
f 211/381/12 204/380/12 194/339/12 193/338/12
f 186/388/13 217/389/20 218/390/20 201/391/13
f 201/350/5 218/392/5 209/393/5 198/351/5
f 216/394/14 215/395/15 219/396/15 220/397/14
f 221/398/6 222/399/6 214/400/6 213/401/6
f 220/402/5 219/403/5 222/404/5 221/405/5
f 185/328/4 210/406/4 217/407/4 186/329/4
f 215/395/15 207/368/10 187/369/10 219/396/15
f 214/385/4 192/364/4 207/367/4 215/386/4
f 222/399/6 190/334/6 192/337/6 214/400/6
f 219/403/5 187/330/5 190/333/5 222/404/5
f 218/392/5 220/402/5 221/405/5 209/393/5
f 209/373/6 221/398/6 213/401/6 210/374/6
f 217/389/20 216/394/14 220/397/14 218/390/20
f 210/406/4 213/384/4 216/387/4 217/407/4
