# Blender v2.79 (sub 0) OBJ File: ''
# www.blender.org
mtllib Lamp_2.mtl
o Circle.001_Circle.004
v -0.000460 -0.125921 -0.211481
v -0.081390 -0.125921 -0.195383
v -0.149999 -0.125921 -0.149539
v -0.195843 -0.125921 -0.080930
v -0.211940 -0.125921 0.000000
v -0.195843 -0.125921 0.080930
v -0.149999 -0.125921 0.149539
v -0.081390 -0.125921 0.195383
v -0.000460 -0.125921 0.211481
v 0.080470 -0.125921 0.195383
v 0.149079 -0.125921 0.149539
v 0.194922 -0.125921 0.080930
v 0.211020 -0.125921 -0.000000
v 0.194922 -0.125921 -0.080930
v 0.149079 -0.125921 -0.149539
v 0.080470 -0.125921 -0.195383
v -0.000460 -0.002274 -0.211481
v -0.081390 -0.002274 -0.195383
v -0.149999 -0.002274 -0.149539
v -0.195843 -0.002274 -0.080930
v -0.211940 -0.002274 -0.000000
v -0.195843 -0.002274 0.080930
v -0.149999 -0.002274 0.149539
v -0.081390 -0.002274 0.195383
v -0.000460 -0.002274 0.211480
v 0.080470 -0.002274 0.195383
v 0.149079 -0.002274 0.149539
v 0.194922 -0.002274 0.080930
v 0.211020 -0.002274 -0.000000
v 0.194922 -0.002274 -0.080930
v 0.149079 -0.002274 -0.149539
v 0.080470 -0.002274 -0.195383
v -0.068520 -0.073681 -0.164312
v -0.000460 -0.073681 -0.009382
v -0.008585 -0.073681 -0.004691
v -0.008585 -0.073681 0.004691
v -0.000460 -0.073681 0.009382
v 0.007665 -0.073681 0.004691
v 0.007665 -0.073681 -0.004691
v -0.000460 -0.459298 -0.009382
v -0.008585 -0.459298 -0.004691
v -0.008585 -0.459298 0.004691
v -0.000460 -0.459298 0.009382
v 0.007665 -0.459298 0.004691
v 0.007665 -0.459298 -0.004691
v -0.000460 -0.459298 0.000000
v 0.046398 -0.459298 0.000000
v -0.000460 -0.459298 -0.046858
v -0.033594 -0.459298 -0.033134
v -0.047318 -0.459298 0.000000
v -0.033594 -0.459298 0.033134
v -0.000460 -0.459298 0.046858
v 0.032674 -0.459298 0.033134
v 0.032674 -0.459298 -0.033134
v -0.000460 -0.530675 -0.046858
v -0.033594 -0.530675 -0.033134
v -0.047318 -0.530675 0.000000
v -0.033594 -0.530675 0.033134
v -0.000460 -0.530675 0.046858
v 0.032674 -0.530675 0.033134
v 0.046398 -0.530675 0.000000
v 0.032674 -0.530675 -0.033134
v -0.000460 -0.621134 -0.079438
v -0.056631 -0.621134 -0.056171
v -0.079898 -0.621134 0.000000
v -0.056631 -0.621134 0.056171
v -0.000460 -0.621134 0.079438
v 0.055711 -0.621134 0.056171
v 0.078978 -0.621134 0.000000
v 0.055711 -0.621134 -0.056171
v -0.000460 -0.776913 -0.089307
v -0.063610 -0.776913 -0.063150
v -0.089767 -0.776913 0.000000
v -0.063610 -0.776913 0.063150
v -0.000460 -0.776913 0.089307
v 0.062690 -0.776913 0.063150
v 0.088847 -0.776913 0.000000
v 0.062690 -0.776913 -0.063150
v -0.000460 -0.812923 -0.060327
v -0.043118 -0.802089 -0.042658
v -0.060787 -0.812923 0.000000
v -0.043118 -0.802089 0.042658
v -0.000460 -0.812923 0.060327
v 0.042198 -0.802089 0.042658
v 0.059867 -0.812923 0.000000
v 0.042198 -0.802089 -0.042658
v -0.000460 -0.832648 0.000000
v 0.093614 -0.684109 0.000000
v 0.066061 -0.684109 -0.066521
v -0.000460 -0.684109 0.094075
v 0.066061 -0.684109 0.066521
v -0.094534 -0.684109 0.000000
v -0.066981 -0.684109 0.066521
v -0.000460 -0.684109 -0.094074
v -0.066981 -0.684109 -0.066521
v 0.094851 -0.736826 0.000000
v -0.000460 -0.736826 0.095311
v -0.095771 -0.736826 0.000000
v -0.000460 -0.736826 -0.095311
v 0.066935 -0.736826 -0.067395
v 0.066935 -0.736826 0.067395
v -0.067855 -0.736826 0.067395
v -0.067855 -0.736826 -0.067395
v -0.009492 -0.459298 0.018502
v 0.001908 -0.459298 0.018502
v -0.009492 -0.459298 0.007102
v 0.001908 -0.459298 0.007102
v 0.001079 -0.369800 0.020986
v 0.013811 -0.369800 0.020986
v 0.001079 -0.369800 0.008254
v 0.013811 -0.369800 0.008254
v 0.016787 -0.304320 0.003135
v 0.029074 -0.307473 0.004224
v 0.016891 -0.308112 -0.009019
v 0.029178 -0.311265 -0.007930
v 0.007811 -0.238319 -0.011251
v 0.020285 -0.237957 -0.008726
v 0.010358 -0.239337 -0.023685
v 0.022832 -0.238976 -0.021159
v -0.012648 -0.168835 -0.022250
v -0.015478 -0.169789 -0.009873
v -0.003945 -0.165297 -0.006889
v -0.001115 -0.164342 -0.019266
v -0.030526 -0.108678 0.002120
v -0.033904 -0.111192 0.014136
v -0.021878 -0.109365 0.017899
v -0.018501 -0.106851 0.005883
v -0.026563 -0.067723 0.016249
v -0.029940 -0.070237 0.028265
v -0.017915 -0.068409 0.032027
v -0.014537 -0.065895 0.020011
v -0.000460 -0.532444 -0.038375
v -0.027595 -0.532444 -0.027135
v 0.026675 -0.532444 -0.027135
v 0.026675 -0.532444 0.027135
v 0.037915 -0.532444 0.000000
v -0.027595 -0.532444 0.027135
v -0.000460 -0.532444 0.038375
v -0.038835 -0.532444 0.000000
v -0.068520 -0.125921 -0.164312
v -0.000460 -0.125921 -0.177851
v -0.126219 -0.125921 -0.125759
v -0.164772 -0.125921 -0.068060
v -0.178311 -0.125921 0.000000
v -0.164772 -0.125921 0.068060
v -0.126219 -0.125921 0.125759
v -0.068520 -0.125921 0.164312
v -0.000460 -0.125921 0.177851
v 0.067600 -0.125921 0.164313
v 0.125299 -0.125921 0.125759
v 0.163852 -0.125921 0.068061
v 0.177391 -0.125921 -0.000000
v 0.163852 -0.125921 -0.068061
v 0.125299 -0.125921 -0.125759
v 0.067600 -0.125921 -0.164313
v -0.000460 -0.073681 -0.177851
v -0.126219 -0.073681 -0.125759
v -0.164772 -0.073681 -0.068060
v -0.178311 -0.073681 -0.000000
v -0.164772 -0.073681 0.068060
v -0.126219 -0.073681 0.125759
v -0.068520 -0.073681 0.164313
v -0.000460 -0.073681 0.177851
v 0.067600 -0.073680 0.164313
v 0.125299 -0.073680 0.125759
v 0.163852 -0.073680 0.068060
v 0.177391 -0.073680 -0.000000
v 0.163852 -0.073680 -0.068061
v 0.125299 -0.073681 -0.125759
v 0.067600 -0.073681 -0.164313
v -0.000460 -0.073681 -0.000000
vt 0.676476 0.138101
vt 0.733420 0.150915
vt 0.714297 0.197082
vt 0.666590 0.163452
vt 0.539707 0.140960
vt 0.482193 0.150915
vt 0.482192 0.100942
vt 0.539138 0.113755
vt 0.675907 0.110896
vt 0.733421 0.100942
vt 0.550644 0.165876
vt 0.501317 0.197083
vt 0.645332 0.067145
vt 0.678963 0.019438
vt 0.714298 0.054774
vt 0.664971 0.085980
vt 0.570283 0.184711
vt 0.536653 0.232418
vt 0.619980 0.057260
vt 0.632794 0.000314
vt 0.595634 0.194596
vt 0.582821 0.251541
vt 0.592775 0.057829
vt 0.582821 0.000313
vt 0.622839 0.194027
vt 0.632793 0.251541
vt 0.567858 0.068765
vt 0.536652 0.019437
vt 0.647755 0.183091
vt 0.678961 0.232418
vt 0.549023 0.088404
vt 0.501316 0.054774
vt 0.639349 0.076696
vt 0.618107 0.068373
vt 0.559826 0.159342
vt 0.576266 0.175160
vt 0.664924 0.113419
vt 0.655789 0.092514
vt 0.550691 0.138438
vt 0.665363 0.136228
vt 0.550251 0.115628
vt 0.657040 0.157469
vt 0.558574 0.094387
vt 0.641222 0.173908
vt 0.574392 0.077947
vt 0.620317 0.183043
vt 0.595297 0.068813
vt 0.597507 0.183483
vt 0.886037 0.818146
vt 0.882200 0.818146
vt 0.882200 0.660418
vt 0.886037 0.660418
vt 0.878362 0.818146
vt 0.874525 0.818146
vt 0.874525 0.660418
vt 0.878362 0.660418
vt 0.870687 0.818146
vt 0.866850 0.818146
vt 0.866850 0.660418
vt 0.870688 0.660418
vt 0.889875 0.818146
vt 0.889874 0.660418
vt 0.688299 0.252168
vt 0.680964 0.269875
vt 0.663257 0.262541
vt 0.673630 0.252168
vt 0.698671 0.262541
vt 0.698671 0.277210
vt 0.673630 0.287582
vt 0.663257 0.277210
vt 0.688299 0.287582
vt 0.758132 0.387495
vt 0.774379 0.393887
vt 0.761428 0.421105
vt 0.750322 0.415553
vt 0.663257 0.404401
vt 0.676493 0.396656
vt 0.689990 0.420635
vt 0.678672 0.430744
vt 0.691286 0.389719
vt 0.707094 0.385074
vt 0.712799 0.412288
vt 0.701437 0.415132
vt 0.723898 0.383019
vt 0.741177 0.383814
vt 0.738096 0.412441
vt 0.725122 0.411413
vt 0.789894 0.402770
vt 0.771933 0.430993
vt 0.855521 0.699838
vt 0.860861 0.698690
vt 0.860972 0.726891
vt 0.855949 0.725954
vt 0.858847 0.660614
vt 0.863500 0.660418
vt 0.866223 0.697845
vt 0.854255 0.661394
vt 0.845038 0.660974
vt 0.849745 0.661571
vt 0.849966 0.699320
vt 0.844707 0.698500
vt 0.850979 0.726357
vt 0.855744 0.754257
vt 0.850646 0.754437
vt 0.845978 0.727491
vt 0.866189 0.727253
vt 0.855542 0.784195
vt 0.850747 0.785164
vt 0.865727 0.755444
vt 0.860555 0.755233
vt 0.845815 0.755445
vt 0.860567 0.783678
vt 0.860576 0.810749
vt 0.855102 0.811557
vt 0.865531 0.784648
vt 0.845516 0.784539
vt 0.849784 0.812533
vt 0.855269 0.829827
vt 0.850370 0.830403
vt 0.844706 0.811800
vt 0.865688 0.811719
vt 0.864832 0.829125
vt 0.859786 0.828384
vt 0.845634 0.829008
vt 0.713215 0.415148
vt 0.702493 0.418115
vt 0.691923 0.423531
vt 0.682494 0.432606
vt 0.759611 0.423616
vt 0.749149 0.418577
vt 0.725076 0.414999
vt 0.768206 0.432606
vt 0.737501 0.415742
vt 0.648895 0.291282
vt 0.662630 0.324441
vt 0.639133 0.329731
vt 0.629211 0.305161
vt 0.495928 0.393492
vt 0.482192 0.360333
vt 0.505690 0.355043
vt 0.515612 0.379613
vt 0.662630 0.360333
vt 0.638898 0.356228
vt 0.482192 0.324441
vt 0.505925 0.328546
vt 0.648895 0.393492
vt 0.628540 0.380617
vt 0.495928 0.291282
vt 0.516283 0.304157
vt 0.623516 0.418871
vt 0.609637 0.399187
vt 0.521307 0.265903
vt 0.535185 0.285587
vt 0.590357 0.432606
vt 0.585067 0.409109
vt 0.554466 0.252168
vt 0.559755 0.275665
vt 0.554466 0.432606
vt 0.558571 0.408873
vt 0.590357 0.252168
vt 0.623516 0.265903
vt 0.610642 0.286258
vt 0.586252 0.275901
vt 0.521307 0.418871
vt 0.534181 0.398516
vt 0.572411 0.342387
vt 0.955203 0.270825
vt 0.941273 0.267041
vt 0.948310 0.222940
vt 0.975085 0.227101
vt 0.926813 0.267010
vt 0.924141 0.222839
vt 0.912489 0.270136
vt 0.898760 0.276604
vt 0.870270 0.232680
vt 0.899392 0.225460
vt 0.901725 0.009877
vt 0.916185 0.009908
vt 0.918857 0.054078
vt 0.894688 0.053978
vt 0.930509 0.006781
vt 0.944238 0.000313
vt 0.972728 0.044238
vt 0.943606 0.051457
vt 0.887796 0.006092
vt 0.867913 0.049816
vt 0.922223 0.182068
vt 0.898374 0.179766
vt 0.901776 0.166005
vt 0.921601 0.170039
vt 0.867405 0.107021
vt 0.897331 0.098038
vt 0.901570 0.111100
vt 0.875939 0.125594
vt 0.920775 0.094849
vt 0.944624 0.097151
vt 0.941222 0.110912
vt 0.921397 0.106878
vt 0.975593 0.169897
vt 0.945667 0.178880
vt 0.941428 0.165818
vt 0.967059 0.151324
vt 0.867523 0.170834
vt 0.876729 0.152037
vt 0.975475 0.106084
vt 0.966269 0.124880
vt 0.950922 0.138195
vt 0.934589 0.123939
vt 0.908409 0.152978
vt 0.921560 0.158886
vt 0.908332 0.124111
vt 0.892076 0.138722
vt 0.921439 0.118032
vt 0.934666 0.152806
vt 0.921499 0.138459
vt 0.979600 0.078614
vt 0.946185 0.077669
vt 0.920044 0.077701
vt 0.894527 0.079194
vt 0.863398 0.198303
vt 0.896813 0.199248
vt 0.922954 0.199217
vt 0.948472 0.197723
vt 0.979600 0.195783
vt 0.863398 0.081134
vn 0.5276 -0.6657 -0.5276
vn 0.7071 -0.0000 -0.7071
vn 0.9239 -0.0000 -0.3827
vn 0.6894 -0.6657 -0.2856
vn -0.2856 -0.6657 0.6894
vn -0.3827 0.0000 0.9239
vn -0.7071 0.0000 0.7071
vn -0.5276 -0.6657 0.5276
vn 0.2856 -0.6657 -0.6894
vn 0.3827 -0.0000 -0.9239
vn 0.0000 -0.6657 0.7462
vn -0.0000 0.0000 1.0000
vn -0.2856 -0.6657 -0.6894
vn -0.3827 -0.0000 -0.9239
vn -0.0000 -0.0000 -1.0000
vn -0.0000 -0.6657 -0.7462
vn 0.2856 -0.6657 0.6894
vn 0.3827 0.0000 0.9239
vn -0.5276 -0.6657 -0.5276
vn -0.7071 -0.0000 -0.7071
vn 0.5276 -0.6657 0.5276
vn 0.7071 0.0000 0.7071
vn -0.6894 -0.6657 -0.2856
vn -0.9239 -0.0000 -0.3827
vn 0.6894 -0.6657 0.2856
vn 0.9239 -0.0000 0.3827
vn -0.7462 -0.6657 0.0000
vn -1.0000 0.0000 -0.0000
vn 0.7462 -0.6657 0.0000
vn 1.0000 -0.0000 -0.0000
vn -0.6894 -0.6657 0.2856
vn -0.9239 0.0000 0.3827
vn 0.2515 -0.7538 0.6071
vn 0.4647 -0.7538 0.4647
vn 0.0000 -0.7538 -0.6571
vn -0.2515 -0.7538 -0.6071
vn -0.2515 -0.7538 0.6071
vn 0.0000 -0.7538 0.6571
vn 0.2515 -0.7538 -0.6071
vn -0.4647 -0.7538 0.4647
vn 0.4647 -0.7538 -0.4647
vn -0.6071 -0.7538 0.2515
vn 0.6071 -0.7538 -0.2515
vn -0.6571 -0.7538 0.0000
vn 0.6571 -0.7538 0.0000
vn -0.6071 -0.7538 -0.2515
vn 0.6071 -0.7538 0.2515
vn -0.4647 -0.7538 -0.4647
vn 0.8660 -0.0000 -0.5000
vn 0.8660 0.0000 0.5000
vn -0.8660 0.0000 0.5000
vn -0.8660 -0.0000 -0.5000
vn 0.7764 0.6303 0.0000
vn 0.0000 1.0000 0.0000
vn 0.0000 0.6303 0.7764
vn 0.5490 0.6303 0.5490
vn 0.5490 0.6303 -0.5490
vn -0.0000 0.6303 -0.7764
vn -0.7764 0.6303 0.0000
vn -0.5490 0.6303 0.5490
vn -0.5490 0.6303 -0.5490
vn 0.8254 -0.5645 0.0000
vn 0.5837 -0.5645 -0.5837
vn 0.0000 -0.5645 0.8254
vn 0.5837 -0.5645 0.5837
vn -0.8254 -0.5645 -0.0000
vn -0.5837 -0.5645 0.5837
vn 0.0000 -0.5645 -0.8254
vn -0.5837 -0.5645 -0.5837
vn 0.7128 -0.2357 -0.6605
vn -0.7390 0.0599 -0.6711
vn -0.6091 -0.1309 -0.7822
vn 0.7620 -0.2062 -0.6139
vn -0.7257 0.0945 -0.6815
vn -0.7360 0.0682 0.6736
vn -0.6804 0.1906 0.7076
vn 0.6697 -0.0796 -0.7384
vn 0.6771 -0.1103 0.7276
vn 0.6538 -0.0182 0.7565
vn 0.7140 0.1141 0.6908
vn 0.7915 0.1011 -0.6028
vn 0.6187 0.2028 0.7590
vn -0.7135 0.1887 0.6748
vn 0.7449 0.3641 -0.5590
vn 0.5804 -0.0122 0.8142
vn -0.8064 -0.1394 0.5746
vn -0.5110 -0.1685 -0.8429
vn -0.5138 0.0078 -0.8579
vn -0.5952 0.2179 -0.7735
vn 0.8210 0.2769 -0.4993
vn -0.8290 -0.3438 0.4412
vn 0.4607 -0.2792 0.8425
vn 0.9270 0.0390 -0.3730
vn 0.5637 -0.3176 0.7625
vn -0.8560 -0.2476 0.4539
vn -0.7932 -0.1286 0.5953
vn -0.4421 0.3305 -0.8339
vn -0.8363 -0.5483 -0.0000
vn -0.5913 -0.5483 0.5913
vn -0.0000 -0.5483 0.8363
vn 0.5913 -0.5483 0.5913
vn 0.8363 -0.5483 -0.0000
vn 0.5913 -0.5483 -0.5913
vn -0.5913 -0.5483 -0.5913
vn -0.0000 -0.5483 -0.8363
vn -0.6895 -0.6657 0.2854
vn -0.5275 -0.6657 0.5278
vn 0.6894 -0.6657 -0.2855
vn 0.5278 -0.6657 -0.5275
vn 0.7462 -0.6657 -0.0003
vn -0.6894 -0.6657 -0.2855
vn -0.5278 -0.6657 -0.5275
vn 0.5276 -0.6657 0.5277
vn -0.2855 -0.6657 -0.6894
vn 0.2855 -0.6657 0.6894
vn -0.0002 -0.6657 -0.7462
vn -0.2855 -0.6657 0.6894
vn 0.0001 -0.6657 0.7462
vn 0.2855 -0.6657 -0.6894
vn 0.0000 -1.0000 0.0000
vn 0.0000 0.3175 -0.9482
vn -0.6705 0.3175 -0.6705
vn 0.6705 0.3175 -0.6705
vn 0.6705 0.3175 0.6705
vn 0.9482 0.3175 -0.0000
vn -0.6705 0.3175 0.6705
vn -0.0000 0.3175 0.9482
vn -0.9482 0.3175 0.0000
vn 0.7058 -0.0613 -0.7058
vn 0.9981 -0.0613 0.0000
vn 0.9083 -0.4184 -0.0000
vn 0.6468 -0.4040 -0.6468
vn 0.7058 -0.0613 0.7058
vn 0.0000 -0.0613 0.9981
vn -0.0000 -0.4184 0.9083
vn 0.6468 -0.4040 0.6468
vn -0.7058 -0.0613 0.7058
vn -0.9981 -0.0613 0.0000
vn -0.9083 -0.4184 0.0000
vn -0.6468 -0.4040 0.6468
vn -0.7058 -0.0613 -0.7058
vn 0.0000 -0.0613 -0.9981
vn -0.0000 -0.4184 -0.9083
vn -0.6468 -0.4040 -0.6468
vn -0.4550 -0.7655 -0.4550
vn -0.5609 -0.8279 0.0000
vn 0.5609 -0.8279 0.0000
vn 0.4550 -0.7655 -0.4550
vn -0.0000 -0.8279 0.5609
vn 0.4550 -0.7655 0.4550
vn -0.4550 -0.7655 0.4550
vn -0.0000 -0.8279 -0.5609
vn -0.7018 0.1226 -0.7018
vn -0.9925 0.1226 0.0000
vn -0.7018 0.1226 0.7018
vn 0.0000 0.1226 0.9925
vn 0.7018 0.1226 0.7018
vn 0.9925 0.1226 -0.0000
vn 0.7018 0.1226 -0.7018
vn 0.0000 0.1226 -0.9925
usemtl Lamp_1
s 1
f 15/1/1 31/2/2 30/3/3 14/4/4
f 8/5/5 24/6/6 23/7/7 7/8/8
f 16/9/9 32/10/10 31/2/2 15/1/1
f 9/11/11 25/12/12 24/6/6 8/5/5
f 2/13/13 18/14/14 17/15/15 1/16/16
f 1/16/16 17/15/15 32/10/10 16/9/9
f 10/17/17 26/18/18 25/12/12 9/11/11
f 3/19/19 19/20/20 18/14/14 2/13/13
f 11/21/21 27/22/22 26/18/18 10/17/17
f 4/23/23 20/24/24 19/20/20 3/19/19
f 12/25/25 28/26/26 27/22/22 11/21/21
f 5/27/27 21/28/28 20/24/24 4/23/23
f 13/29/29 29/30/30 28/26/26 12/25/25
f 6/31/31 22/32/32 21/28/28 5/27/27
f 14/4/4 30/3/3 29/30/30 13/29/29
f 7/8/8 23/7/7 22/32/32 6/31/31
f 3/19/19 2/13/13 140/33/33 142/34/34
f 10/17/17 9/11/11 148/35/35 149/36/36
f 1/16/16 16/9/9 155/37/37 141/38/38
f 2/13/13 1/16/16 141/38/38 140/33/33
f 9/11/11 8/5/5 147/39/39 148/35/35
f 16/9/9 15/1/1 154/40/40 155/37/37
f 8/5/5 7/8/8 146/41/41 147/39/39
f 15/1/1 14/4/4 153/42/42 154/40/40
f 7/8/8 6/31/31 145/43/43 146/41/41
f 14/4/4 13/29/29 152/44/44 153/42/42
f 6/31/31 5/27/27 144/45/45 145/43/43
f 13/29/29 12/25/25 151/46/46 152/44/44
f 5/27/27 4/23/23 143/47/47 144/45/45
f 12/25/25 11/21/21 150/48/48 151/46/46
f 4/23/23 3/19/19 142/34/34 143/47/47
f 11/21/21 10/17/17 149/36/36 150/48/48
f 34/49/15 39/50/49 45/51/49 40/52/15
f 38/53/50 37/54/12 43/55/12 44/56/50
f 36/57/51 35/58/52 41/59/52 42/60/51
f 39/50/49 38/53/50 44/56/50 45/51/49
f 37/54/12 36/57/51 42/60/51 43/55/12
f 35/61/52 34/49/15 40/52/15 41/62/52
f 47/63/53 46/64/54 52/65/55 53/66/56
f 54/67/57 48/68/58 46/64/54 47/63/53
f 50/69/59 51/70/60 52/65/55 46/64/54
f 49/71/61 50/69/59 46/64/54 48/68/58
f 54/72/57 47/73/53 61/74/62 62/75/63
f 53/76/56 52/77/55 59/78/64 60/79/65
f 51/80/60 50/81/59 57/82/66 58/83/67
f 49/84/61 48/85/58 55/86/68 56/87/69
f 48/85/58 54/72/57 62/75/63 55/86/68
f 47/73/53 53/88/56 60/89/65 61/74/62
f 52/77/55 51/80/60 58/83/67 59/78/64
f 50/81/59 49/84/61 56/87/69 57/82/66
f 111/90/70 110/91/71 114/92/72 115/93/73
f 106/94/74 104/95/75 108/96/76 110/91/71
f 107/97/77 106/94/74 110/91/71 111/90/70
f 104/98/75 105/99/78 109/100/79 108/101/76
f 105/99/78 107/97/77 111/90/70 109/100/79
f 113/102/80 115/93/73 119/103/81 117/104/82
f 108/101/76 109/100/79 113/102/80 112/105/83
f 109/100/79 111/90/70 115/93/73 113/102/80
f 110/91/71 108/96/76 112/106/83 114/92/72
f 117/104/82 119/103/81 123/107/84 122/108/85
f 114/92/72 112/106/83 116/109/86 118/110/87
f 115/93/73 114/92/72 118/110/87 119/103/81
f 112/105/83 113/102/80 117/104/82 116/111/86
f 123/107/84 120/112/88 124/113/89 127/114/90
f 118/110/87 116/109/86 121/115/91 120/112/88
f 119/103/81 118/110/87 120/112/88 123/107/84
f 116/111/86 117/104/82 122/108/85 121/116/91
f 126/117/92 127/114/90 131/118/93 130/119/94
f 121/116/91 122/108/85 126/117/92 125/120/95
f 122/108/85 123/107/84 127/114/90 126/117/92
f 120/112/88 121/115/91 125/121/95 124/113/89
f 124/113/89 125/121/95 129/122/96 128/123/97
f 127/114/90 124/113/89 128/123/97 131/118/93
f 125/120/95 126/117/92 130/119/94 129/124/96
f 58/83/67 57/82/66 139/125/98 137/126/99
f 60/79/65 59/78/64 138/127/100 135/128/101
f 62/75/63 61/74/62 136/129/102 134/130/103
f 57/82/66 56/87/69 133/131/104 139/125/98
f 59/78/64 58/83/67 137/126/99 138/127/100
f 61/74/62 60/89/65 135/132/101 136/129/102
f 55/86/68 62/75/63 134/130/103 132/133/105
f 56/87/69 55/86/68 132/133/105 133/131/104
f 154/134/40 153/135/42 168/136/106 169/137/107
f 146/138/41 145/139/43 160/140/108 161/141/109
f 153/135/42 152/142/44 167/143/27 168/136/106
f 145/139/43 144/144/45 159/145/110 160/140/108
f 152/142/44 151/146/46 166/147/111 167/143/27
f 144/144/45 143/148/47 158/149/25 159/145/110
f 151/146/46 150/150/48 165/151/112 166/147/111
f 143/148/47 142/152/34 157/153/113 158/149/25
f 150/150/48 149/154/36 164/155/114 165/151/112
f 142/152/34 140/156/33 33/157/115 157/153/113
f 149/154/36 148/158/35 163/159/116 164/155/114
f 141/160/38 155/161/37 170/162/117 156/163/118
f 140/156/33 141/160/38 156/163/118 33/157/115
f 148/158/35 147/164/39 162/165/119 163/159/116
f 155/161/37 154/134/40 169/137/107 170/162/117
f 147/164/39 146/138/41 161/141/109 162/165/119
f 169/137/120 168/136/120 171/166/120
f 162/165/120 161/141/120 171/166/120
f 170/162/120 169/137/120 171/166/120
f 163/159/120 162/165/120 171/166/120
f 33/157/120 156/163/120 171/166/120
f 156/163/120 170/162/120 171/166/120
f 164/155/120 163/159/120 171/166/120
f 157/153/120 33/157/120 171/166/120
f 165/151/120 164/155/120 171/166/120
f 158/149/120 157/153/120 171/166/120
f 166/147/120 165/151/120 171/166/120
f 159/145/120 158/149/120 171/166/120
f 167/143/120 166/147/120 171/166/120
f 160/140/120 159/145/120 171/166/120
f 168/136/120 167/143/120 171/166/120
f 161/141/120 160/140/120 171/166/120
usemtl Lamp_1_Transparent
f 133/167/104 132/168/105 63/169/121 64/170/122
f 132/168/105 134/171/103 70/172/123 63/169/121
f 136/173/102 135/174/101 68/175/124 69/176/125
f 138/177/100 137/178/99 66/179/126 67/180/127
f 139/181/98 133/182/104 64/183/122 65/184/128
f 134/171/103 136/173/102 69/176/125 70/172/123
f 135/185/101 138/177/100 67/180/127 68/186/124
f 137/178/99 139/181/98 65/184/128 66/179/126
f 100/187/129 96/188/130 77/189/131 78/190/132
f 101/191/133 97/192/134 75/193/135 76/194/136
f 102/195/137 98/196/138 73/197/139 74/198/140
f 103/199/141 99/200/142 71/201/143 72/202/144
f 99/200/142 100/187/129 78/190/132 71/201/143
f 96/188/130 101/203/133 76/204/136 77/189/131
f 97/192/134 102/195/137 74/198/140 75/193/135
f 98/196/138 103/205/141 72/206/144 73/197/139
f 73/197/139 72/206/144 80/207/145 81/208/146
f 78/190/132 77/189/131 85/209/147 86/210/148
f 76/194/136 75/193/135 83/211/149 84/212/150
f 74/198/140 73/197/139 81/208/146 82/213/151
f 72/202/144 71/201/143 79/214/152 80/207/145
f 71/201/143 78/190/132 86/210/148 79/214/152
f 77/189/131 76/204/136 84/212/150 85/209/147
f 75/193/135 74/198/140 82/213/151 83/211/149
f 87/215/120 79/214/152 86/210/148 85/209/147
f 83/211/149 87/215/120 85/209/147 84/212/150
f 82/213/151 81/208/146 87/215/120 83/211/149
f 81/208/146 80/207/145 79/214/152 87/215/120
f 65/184/128 64/183/122 95/216/153 92/217/154
f 67/180/127 66/179/126 93/218/155 90/219/156
f 69/176/125 68/175/124 91/220/157 88/221/158
f 63/169/121 70/172/123 89/222/159 94/223/160
f 64/170/122 63/169/121 94/223/160 95/224/153
f 66/179/126 65/184/128 92/217/154 93/218/155
f 68/186/124 67/180/127 90/219/156 91/225/157
f 70/172/123 69/176/125 88/221/158 89/222/159
f 92/217/154 95/216/153 103/205/141 98/196/138
f 90/219/156 93/218/155 102/195/137 97/192/134
f 88/221/158 91/220/157 101/203/133 96/188/130
f 94/223/160 89/222/159 100/187/129 99/200/142
f 95/224/153 94/223/160 99/200/142 103/199/141
f 93/218/155 92/217/154 98/196/138 102/195/137
f 91/225/157 90/219/156 97/192/134 101/191/133
f 89/222/159 88/221/158 96/188/130 100/187/129
