# Blender v2.79 (sub 0) OBJ File: ''
# www.blender.org
mtllib Nightstand_2.mtl
o b_low.001_Untitled.000
v -0.868484 1.734728 -0.663467
v -0.872074 1.734701 0.639849
v 0.881031 1.734848 -0.658647
v 0.877440 1.734822 0.644670
v 0.881150 0.000026 -0.658683
v 0.877558 -0.000001 0.644634
v -0.871955 -0.000121 0.639814
v -0.868364 -0.000094 -0.663503
v 0.771474 0.337126 -0.658978
v 0.771497 0.000018 -0.658985
v 0.767906 -0.000008 0.644332
v 0.767883 0.337099 0.644339
v -0.758735 0.337021 -0.663194
v -0.758712 -0.000087 -0.663200
v -0.762303 -0.000113 0.640116
v -0.762326 0.336994 0.640123
v -0.868488 1.813423 -0.663465
v -0.872080 1.813396 0.639851
v 0.877434 1.813516 0.644671
v 0.881025 1.813543 -0.658646
v -0.937153 1.761106 -0.637274
v -0.940859 1.761078 0.708255
v -0.940861 1.787007 0.708256
v -0.937154 1.787035 -0.637273
v 0.945843 1.761207 0.713454
v 0.945842 1.787137 0.713454
v 0.949551 1.761235 -0.632075
v 0.949549 1.787164 -0.632075
v 0.049757 1.302701 0.785351
v 0.126602 1.292801 0.753691
v 0.156074 1.285703 0.698101
v -0.150953 1.285681 0.697255
v -0.121788 1.292785 0.753007
v -0.045120 1.302694 0.785090
v 0.002314 1.296597 0.786986
v 0.040732 1.368298 0.770766
v 0.102902 1.367302 0.744936
v 0.126750 1.365868 0.698021
v -0.121640 1.365851 0.697337
v -0.098050 1.367289 0.744383
v -0.036024 1.368293 0.770554
v 0.002355 1.368158 0.770257
v 0.030285 1.392031 0.753030
v 0.075453 1.392034 0.734429
v 0.092787 1.392036 0.697929
v -0.087679 1.392024 0.697431
v -0.070547 1.392024 0.734027
v -0.025482 1.392027 0.752876
v 0.002405 1.392029 0.751501
v 0.009483 1.424106 0.697700
v 0.030224 1.407269 0.697756
v 0.058105 1.404905 0.697833
v -0.053000 1.404897 0.697527
v -0.025119 1.407265 0.697604
v -0.004380 1.424105 0.697661
v 0.002551 1.427265 0.697681
v 0.009475 1.396878 0.695844
v 0.029559 1.396894 0.695932
v -0.024439 1.396890 0.695782
v -0.004351 1.396877 0.695809
v 0.002560 1.396883 0.695799
v 0.049799 0.687105 0.785339
v 0.126644 0.677206 0.753679
v 0.156117 0.670107 0.698088
v -0.150911 0.670086 0.697242
v -0.121746 0.677189 0.752994
v -0.045078 0.687098 0.785077
v 0.002356 0.681002 0.786974
v 0.040774 0.752703 0.770753
v 0.102944 0.751707 0.744923
v 0.126793 0.750273 0.698009
v -0.121598 0.750256 0.697324
v -0.098008 0.751693 0.744370
v -0.035982 0.752698 0.770542
v 0.002397 0.752562 0.770244
v 0.030327 0.776435 0.753018
v 0.075495 0.776438 0.734417
v 0.092829 0.776441 0.697916
v -0.087637 0.776428 0.697419
v -0.070505 0.776429 0.734015
v -0.025440 0.776431 0.752864
v 0.002447 0.776433 0.751488
v 0.009525 0.808511 0.697687
v 0.030266 0.791674 0.697744
v 0.058148 0.789310 0.697821
v -0.052957 0.789302 0.697514
v -0.025077 0.791670 0.697591
v -0.004338 0.808509 0.697649
v 0.002593 0.811670 0.697668
v 0.009517 0.781283 0.695831
v 0.029601 0.781298 0.695919
v -0.024397 0.781295 0.695770
v -0.004309 0.781282 0.695796
v 0.002603 0.781287 0.695787
v -0.811140 1.037772 0.640003
v -0.811293 1.037771 0.695431
v -0.811184 1.666023 0.640016
v -0.811336 1.666023 0.695443
v 0.816558 1.666135 0.644500
v 0.816406 1.666134 0.699928
v 0.816602 1.037884 0.644487
v 0.816449 1.037882 0.699915
v -0.811096 0.377296 0.639989
v -0.811248 0.377295 0.695417
v -0.811138 1.005547 0.640002
v -0.811291 1.005547 0.695430
v 0.816604 1.005659 0.644487
v 0.816451 1.005658 0.699914
v 0.816647 0.377408 0.644474
v 0.816494 0.377407 0.699901
v -0.871955 -0.000121 0.639813
v -0.871979 0.345606 0.639821
v 0.877535 0.345726 0.644641
v 0.877558 -0.000001 0.644634
v -0.565325 -0.000100 0.640658
v 0.570929 -0.000022 0.643789
v 0.424317 0.121841 0.643388
v 0.486374 0.081567 0.643558
v 0.351695 0.135946 0.643188
v -0.418731 0.121783 0.641065
v -0.346110 0.135898 0.641265
v -0.480782 0.081501 0.640893
v -0.565457 -0.000101 0.688624
v -0.872088 -0.000122 0.687779
v -0.872111 0.345605 0.687786
v -0.480915 0.081500 0.688859
v 0.877426 -0.000002 0.692599
v 0.570796 -0.000023 0.691754
v 0.877403 0.345725 0.692606
v 0.486242 0.081566 0.691523
v -0.346242 0.135897 0.689230
v 0.351562 0.135945 0.691153
v 0.424185 0.121840 0.691353
v -0.418863 0.121782 0.689030
vt 0.334778 0.588945
vt 0.334778 0.840277
vt 0.000235 0.840277
vt 0.000235 0.588945
vt 0.335249 0.747537
vt 0.586581 0.747537
vt 0.586581 0.768682
vt 0.335249 0.768682
vt 0.921594 0.638666
vt 0.587051 0.638667
vt 0.856586 0.617521
vt 0.921594 0.617521
vt 0.334778 0.251567
vt 0.000235 0.251568
vt 0.000235 0.000236
vt 0.334778 0.000235
vt 0.856586 0.322435
vt 0.587051 0.301289
vt 0.921593 0.301289
vt 0.921593 0.322435
vt 0.335249 0.301289
vt 0.586581 0.301289
vt 0.586581 0.322435
vt 0.335249 0.322435
vt 0.065243 0.567800
vt 0.000235 0.567800
vt 0.705208 0.015380
vt 0.705209 0.266195
vt 0.368526 0.266195
vt 0.368525 0.015380
vt 0.724342 0.020457
vt 0.724342 0.279395
vt 0.719352 0.279395
vt 0.719352 0.020457
vt 0.718430 0.286675
vt 0.355346 0.286675
vt 0.355325 0.280338
vt 0.718409 0.280338
vt 0.349392 0.279395
vt 0.349392 0.020457
vt 0.354382 0.020457
vt 0.354382 0.279395
vt 0.368525 0.000235
vt 0.705208 0.000235
vt 0.719352 0.005312
vt 0.719352 0.010302
vt 0.335249 0.266195
vt 0.335249 0.015380
vt 0.738485 0.266194
vt 0.738486 0.015380
vt 0.368547 0.300819
vt 0.705229 0.300819
vt 0.354382 0.010303
vt 0.354382 0.005313
vt 0.586581 0.387442
vt 0.335249 0.387442
vt 0.335249 0.682529
vt 0.586581 0.682529
vt 0.746814 0.086792
vt 0.758236 0.096453
vt 0.754224 0.107697
vt 0.741858 0.103283
vt 0.753726 0.076223
vt 0.765004 0.088976
vt 0.738956 0.139616
vt 0.752696 0.133698
vt 0.756994 0.142821
vt 0.742493 0.151739
vt 0.739015 0.122396
vt 0.752131 0.121772
vt 0.738956 0.112619
vt 0.753066 0.114718
vt 0.759310 0.110322
vt 0.762366 0.101998
vt 0.768568 0.097148
vt 0.762782 0.136040
vt 0.758261 0.129595
vt 0.757760 0.120742
vt 0.758784 0.115569
vt 0.768603 0.123877
vt 0.766488 0.129222
vt 0.770129 0.104749
vt 0.770926 0.118880
vt 0.771489 0.117459
vt 0.771364 0.115935
vt 0.760995 0.230910
vt 0.764003 0.246768
vt 0.738962 0.254578
vt 0.738964 0.250706
vt 0.753203 0.221509
vt 0.760956 0.280949
vt 0.753149 0.290338
vt 0.738956 0.261119
vt 0.763989 0.265096
vt 0.738960 0.257245
vt 0.765095 0.255933
vt 0.738957 0.255912
vt 0.770596 0.110478
vt 0.746814 0.010804
vt 0.758236 0.020466
vt 0.754224 0.031710
vt 0.741858 0.027296
vt 0.753726 0.000235
vt 0.765004 0.012989
vt 0.738956 0.063629
vt 0.752696 0.057710
vt 0.756994 0.066833
vt 0.742493 0.075752
vt 0.739015 0.046409
vt 0.752131 0.045785
vt 0.738956 0.036632
vt 0.753066 0.038731
vt 0.759310 0.034334
vt 0.762366 0.026011
vt 0.768568 0.021160
vt 0.762782 0.060053
vt 0.758261 0.053607
vt 0.757760 0.044755
vt 0.758784 0.039581
vt 0.768603 0.047890
vt 0.766488 0.053235
vt 0.770129 0.028762
vt 0.770926 0.042893
vt 0.771489 0.041471
vt 0.771364 0.039948
vt 0.743055 0.211637
vt 0.740047 0.195779
vt 0.765089 0.187970
vt 0.765086 0.191843
vt 0.750847 0.221039
vt 0.743096 0.161598
vt 0.750903 0.152210
vt 0.765095 0.181430
vt 0.740062 0.177451
vt 0.765091 0.185303
vt 0.738956 0.186614
vt 0.765095 0.186636
vt 0.770596 0.034491
vt 0.597741 0.974409
vt 0.597741 0.963720
vt 0.718892 0.963720
vt 0.718892 0.974408
vt 0.729581 0.963720
vt 0.718892 0.649826
vt 0.729581 0.649826
vt 0.718892 0.639137
vt 0.597740 0.649826
vt 0.597740 0.639137
vt 0.587051 0.649826
vt 0.587051 0.963720
vt 0.740741 0.974409
vt 0.740741 0.963720
vt 0.861893 0.963720
vt 0.861893 0.974408
vt 0.872581 0.963720
vt 0.861892 0.649826
vt 0.872581 0.649826
vt 0.861892 0.639137
vt 0.740740 0.649826
vt 0.740740 0.639137
vt 0.730052 0.649826
vt 0.730052 0.963720
vt 0.882396 0.990889
vt 0.881927 0.934150
vt 0.946370 0.990360
vt 0.895215 0.916430
vt 0.882064 0.705763
vt 0.882888 0.648150
vt 0.947848 0.649078
vt 0.896056 0.723907
vt 0.904965 0.888267
vt 0.905874 0.752436
vt 0.887954 0.728828
vt 0.903157 0.737695
vt 0.894267 0.740974
vt 0.893278 0.900254
vt 0.902240 0.903097
vt 0.887719 0.911951
vt 0.895745 0.887150
vt 0.897160 0.753554
vt 0.873521 0.990963
vt 0.873052 0.934223
vt 0.946443 0.999236
vt 0.882470 0.999765
vt 0.874987 0.928952
vt 0.873052 0.705634
vt 0.873876 0.648021
vt 0.883017 0.639137
vt 0.947976 0.640066
vt 0.874997 0.711057
vt 0.957204 0.649119
vt 0.955727 0.990401
vt 0.065243 0.272713
vt 0.000235 0.272713
vn -0.9998 -0.0025 -0.0217
vn -0.9989 -0.0411 0.0209
vn -1.0000 -0.0001 -0.0028
vn 0.0001 -1.0000 -0.0000
vn 0.0028 0.0000 -1.0000
vn 0.0052 -0.0473 -0.9989
vn 0.9998 -0.0150 -0.0089
vn 1.0000 0.0001 0.0028
vn 0.9987 0.0001 0.0501
vn 0.0009 -0.0473 -0.9989
vn -0.0028 -0.0000 1.0000
vn -0.0008 -0.0190 0.9998
vn -0.0988 0.9901 -0.0993
vn 0.1493 0.9884 -0.0284
vn -0.0309 0.9884 -0.1488
vn -0.0994 0.9901 0.0988
vn 0.0444 -0.0226 -0.9988
vn -1.0000 -0.0000 -0.0028
vn -0.9999 -0.0074 0.0148
vn -0.9998 0.0072 -0.0204
vn -0.0102 -0.0176 0.9998
vn 0.0044 0.0177 0.9998
vn 0.0046 0.0176 0.9998
vn -0.0099 -0.0177 0.9998
vn 0.9999 -0.0071 -0.0149
vn 0.9998 0.0075 0.0203
vn -0.0446 0.0000 -0.9990
vn 0.0264 0.0411 -0.9988
vn -0.0963 0.0991 -0.9904
vn -0.0963 -0.0990 -0.9904
vn -0.3939 0.9073 -0.1471
vn -0.2800 0.9531 -0.1153
vn -0.3590 0.9333 -0.0010
vn -0.3420 0.9397 -0.0066
vn -0.2776 0.1146 -0.9538
vn -0.3883 0.0324 -0.9210
vn -0.3564 0.0000 -0.9343
vn -0.1461 0.9061 0.3971
vn -0.0701 0.8738 0.4812
vn 0.0161 0.9302 0.3667
vn 0.0180 0.9334 0.3583
vn 0.3737 -0.9275 -0.0098
vn 0.4002 -0.9163 0.0171
vn 0.3590 -0.9333 0.0010
vn 0.3420 -0.9397 -0.0048
vn -0.3740 -0.9274 0.0091
vn -0.3724 -0.9280 0.0114
vn -0.3589 -0.9334 -0.0010
vn -0.3762 -0.9256 0.0424
vn -0.0051 -0.9265 0.3763
vn -0.0181 -0.9302 0.3666
vn -0.0200 -0.9334 0.3582
vn 0.0178 -0.9319 0.3623
vn 0.4331 -0.1145 -0.8940
vn 0.3615 0.0000 -0.9324
vn 0.3611 0.0474 -0.9313
vn 0.4826 0.8733 0.0668
vn 0.3723 0.9280 0.0135
vn 0.3589 0.9334 0.0010
vn 0.4303 0.8952 0.1157
vn 0.4430 -0.7079 0.5501
vn 0.6052 0.4015 0.6875
vn 0.2368 0.3421 0.9093
vn 0.2258 -0.8117 0.5386
vn 0.6052 -0.6770 0.4188
vn 0.8162 0.4196 0.3971
vn -0.4460 -0.7079 0.5477
vn -0.6090 0.4014 0.6841
vn -0.8184 0.4195 0.3926
vn -0.6074 -0.6771 0.4155
vn -0.1617 -0.7629 0.6260
vn -0.2418 0.3421 0.9080
vn -0.0012 -0.8928 0.4504
vn -0.0026 0.3220 0.9467
vn 0.1568 0.7708 0.6174
vn 0.3708 0.7963 0.4779
vn 0.5439 0.7989 0.2566
vn -0.5455 0.7989 0.2536
vn -0.3736 0.7963 0.4758
vn -0.1603 0.7708 0.6165
vn -0.0019 0.7532 0.6578
vn -0.3604 0.8993 0.2477
vn -0.2019 0.9523 0.2287
vn 0.2006 0.9524 0.2298
vn -0.2044 0.8654 0.4575
vn -0.0015 0.8558 0.5173
vn 0.2017 0.8654 0.4586
vn -0.1365 -0.6939 -0.7070
vn -0.3300 -0.7059 -0.6267
vn 0.3335 -0.7059 -0.6249
vn 0.1405 -0.6939 -0.7062
vn 0.0021 -0.6746 -0.7382
vn 0.3589 0.8993 0.2497
vn -0.1603 0.7708 0.6166
vn -0.1366 -0.6939 -0.7070
vn 0.1406 -0.6939 -0.7062
vn -0.0001 1.0000 0.0000
vn -0.5444 -0.8388 -0.0015
vn 0.5445 -0.8388 0.0015
vn 0.1908 -0.9816 0.0005
vn -0.1907 -0.9817 -0.0005
vn 0.6945 -0.7195 0.0019
vn -0.6944 -0.7196 -0.0019
vn -0.0182 -0.0112 0.9998
vn -0.0036 -0.0191 0.9998
usemtl Nightstand_2
s 1
f 2/1/1 1/2/2 8/3/3 7/4/3
f 14/5/4 15/6/4 7/7/4 8/8/4
f 8/9/5 1/10/6 13/11/5 14/12/5
f 4/13/7 6/14/8 5/15/8 3/16/9
f 9/17/5 3/18/10 5/19/5 10/20/5
f 5/21/4 6/22/4 11/23/4 10/24/4
f 16/25/11 2/1/12 7/4/11 15/26/11
f 17/27/13 18/28/14 19/29/15 20/30/16
f 9/17/5 13/11/5 1/10/17 3/18/10
f 21/31/18 22/32/19 23/33/20 24/34/18
f 22/35/21 25/36/22 26/37/23 23/38/24
f 25/39/25 27/40/8 28/41/8 26/42/26
f 3/43/27 1/44/28 17/27/29 20/30/30
f 18/28/31 17/27/32 24/34/33 23/33/34
f 17/27/35 1/44/36 21/45/37 24/46/37
f 19/29/38 18/28/39 23/38/40 26/37/41
f 4/47/42 3/48/43 27/40/44 25/39/45
f 2/49/46 22/32/47 21/31/48 1/50/49
f 4/51/50 25/36/51 22/35/52 2/52/53
f 20/30/54 28/53/55 27/54/55 3/43/56
f 19/29/57 26/42/58 28/41/59 20/30/60
f 12/55/3 9/56/3 10/24/3 11/23/3
f 13/57/8 16/58/8 15/6/8 14/5/8
f 13/57/4 9/56/4 12/55/4 16/58/4
f 30/59/61 37/60/62 36/61/63 29/62/64
f 31/63/65 38/64/66 37/60/62 30/59/61
f 33/65/67 40/66/68 39/67/69 32/68/70
f 34/69/71 41/70/72 40/66/68 33/65/67
f 35/71/73 42/72/74 41/70/72 34/69/71
f 29/62/64 36/61/63 42/72/74 35/71/73
f 43/73/75 36/61/63 37/60/62 44/74/76
f 44/74/76 37/60/62 38/64/66 45/75/77
f 46/76/78 39/67/69 40/66/68 47/77/79
f 47/77/79 40/66/68 41/70/72 48/78/80
f 42/72/74 49/79/81 48/78/80 41/70/72
f 36/61/63 43/73/75 49/79/81 42/72/74
f 48/78/80 54/80/82 53/81/83 47/77/79
f 45/75/77 52/82/84 44/74/76
f 48/78/80 55/83/85 54/80/82
f 49/79/81 56/84/86 55/83/85 48/78/80
f 43/73/75 50/85/87 56/84/86 49/79/81
f 30/86/61 29/87/64 57/88/88 58/89/89
f 58/89/89 31/90/65 30/86/61
f 33/91/67 32/92/70 59/93/90
f 34/94/71 33/91/67 59/93/90 60/95/91
f 35/96/73 34/94/71 60/95/91 61/97/92
f 29/87/64 35/96/73 61/97/92 57/88/88
f 43/73/75 51/98/93 50/85/87
f 47/77/79 53/81/83 46/76/78
f 63/99/61 70/100/62 69/101/63 62/102/64
f 64/103/65 71/104/66 70/100/62 63/99/61
f 66/105/67 73/106/68 72/107/69 65/108/70
f 67/109/71 74/110/72 73/106/68 66/105/67
f 68/111/73 75/112/74 74/110/72 67/109/71
f 62/102/64 69/101/63 75/112/74 68/111/73
f 76/113/75 69/101/63 70/100/62 77/114/76
f 77/114/76 70/100/62 71/104/66 78/115/77
f 79/116/78 72/107/69 73/106/68 80/117/79
f 80/117/79 73/106/68 74/110/72 81/118/94
f 75/112/74 82/119/81 81/118/94 74/110/72
f 69/101/63 76/113/75 82/119/81 75/112/74
f 81/118/94 87/120/82 86/121/83 80/117/79
f 78/115/77 85/122/84 77/114/76
f 44/74/76 52/82/84 51/98/93 43/73/75
f 81/118/94 88/123/85 87/120/82
f 82/119/81 89/124/86 88/123/85 81/118/94
f 76/113/75 83/125/87 89/124/86 82/119/81
f 63/126/61 62/127/64 90/128/95 91/129/89
f 91/129/89 64/130/65 63/126/61
f 66/131/67 65/132/70 92/133/90
f 67/134/71 66/131/67 92/133/90 93/135/96
f 68/136/73 67/134/71 93/135/96 94/137/92
f 62/127/64 68/136/73 94/137/92 90/128/95
f 76/113/75 84/138/93 83/125/87
f 80/117/79 86/121/83 79/116/78
f 95/139/3 96/140/3 98/141/3 97/142/3
f 97/143/97 98/141/97 100/144/97 99/145/97
f 99/146/8 100/144/8 102/147/8 101/148/8
f 101/149/4 102/147/4 96/140/4 95/150/4
f 96/140/11 102/147/11 100/144/11 98/141/11
f 103/151/3 104/152/3 106/153/3 105/154/3
f 105/155/97 106/153/97 108/156/97 107/157/97
f 107/158/8 108/156/8 110/159/8 109/160/8
f 109/161/4 110/159/4 104/152/4 103/162/4
f 104/152/11 110/159/11 108/156/11 106/153/11
f 77/114/76 85/122/84 84/138/93 76/113/75
f 124/163/11 123/164/11 125/165/11
f 123/164/11 126/166/11 125/165/11
f 128/167/11 127/168/11 129/169/11
f 129/169/11 130/170/11 128/167/11
f 125/165/11 131/171/11 132/172/11 129/169/11
f 118/173/98 130/170/98 133/174/98 117/175/98
f 120/176/99 134/177/99 126/166/99 122/178/99
f 121/179/100 131/171/100 134/177/100 120/176/100
f 117/175/101 133/174/101 132/172/101 119/180/101
f 111/181/4 115/182/4 123/164/4 124/163/4
f 112/183/3 111/184/3 124/163/3 125/165/3
f 115/185/102 122/178/102 126/166/102 123/164/102
f 116/186/4 114/187/4 127/168/4 128/167/4
f 114/188/8 113/189/8 129/169/8 127/168/8
f 118/173/103 116/190/103 128/167/103 130/170/103
f 121/179/4 119/180/4 132/172/4 131/171/4
f 113/191/97 112/192/97 125/165/97 129/169/97
f 132/172/11 133/174/11 129/169/11
f 133/174/11 130/170/11 129/169/11
f 126/166/11 134/177/11 125/165/11
f 134/177/11 131/171/11 125/165/11
f 2/1/12 16/25/11 12/193/11 4/13/104
f 4/13/105 12/193/11 11/194/11 6/14/11
